PathFileType	4	(X/Y/Z)	s04c0103.trc
DataRate	CameraRate	NumFrames	NumMarkers	Units	OrigDataRate	OrigDataStartFrame	OrigNumFrames
200	200	5	50	mm	200	1500	2000
Frame#	Time	racr			lacr			c7			jug			rlel			rdr			llel			ldr			s2			lic			ric			lasi			rasi			rpsi			lpsi			rgt			lgt			rth1			rth2			rth3			rth4			rlfc			rmfc			rsh1			rsh2			rsh3			rsh4			rlmal			rmmal			rcal			rtoe			rmt5			lth1			lth2			lth4			lth3			llfc			lmfc			lsh1			lsh2			lsh3			lsh4			llmal			lmmal			lcal			ltoe			lmt5			SBIKE			LBIKE			RBIKE			
		X1	Y1	Z1	X2	Y2	Z2	X3	Y3	Z3	X4	Y4	Z4	X5	Y5	Z5	X6	Y6	Z6	X7	Y7	Z7	X8	Y8	Z8	X9	Y9	Z9	X10	Y10	Z10	X11	Y11	Z11	X12	Y12	Z12	X13	Y13	Z13	X14	Y14	Z14	X15	Y15	Z15	X16	Y16	Z16	X17	Y17	Z17	X18	Y18	Z18	X19	Y19	Z19	X20	Y20	Z20	X21	Y21	Z21	X22	Y22	Z22	X23	Y23	Z23	X24	Y24	Z24	X25	Y25	Z25	X26	Y26	Z26	X27	Y27	Z27	X28	Y28	Z28	X29	Y29	Z29	X30	Y30	Z30	X31	Y31	Z31	X32	Y32	Z32	X33	Y33	Z33	X34	Y34	Z34	X35	Y35	Z35	X36	Y36	Z36	X37	Y37	Z37	X38	Y38	Z38	X39	Y39	Z39	X40	Y40	Z40	X41	Y41	Z41	X42	Y42	Z42	X43	Y43	Z43	X44	Y44	Z44	X45	Y45	Z45	X46	Y46	Z46	X47	Y47	Z47	X48	Y48	Z48	X49	Y49	Z49	X50	Y50	Z50	
1500	7.5000	490.235119	1343.198861	-153.595705	502.451572	1325.186145	-432.260159	480.739940	1399.516812	-296.948084	436.966536	1243.931384	-294.889857	462.086917	1067.192216	7.713783	686.523427	915.109934	-103.948426	450.870657	1064.079443	-568.047897	685.069107	919.531483	-488.659669	-76.799732	1157.297310	-300.771712	73.073940	1180.974306	-454.459445	71.736326	1182.915033	-132.083438	119.605946	1141.218926	-407.911692	122.951179	1140.392892	-176.151005	-56.141015	1204.439978	-254.061811	-55.329889	1206.406268	-331.170766	32.313419	1116.116200	-114.319852	55.995346	1083.431932	-474.690829	150.060836	1016.833057	-83.192063	227.854282	974.951493	-81.028683	275.873267	905.271262	-70.594605	250.824752	998.873128	-98.460135	356.411005	788.820919	-81.089256	352.949884	768.852856	-195.079576	259.369080	712.341568	-69.471236	208.283770	639.912835	-93.934715	129.799819	610.073650	-112.527688	233.674846	618.742290	-114.152121	22.185806	505.892215	-136.114253	56.846533	500.930435	-216.849714	-47.549620	515.816638	-186.376836	188.986531	329.337541	-153.829394	115.127655	349.056705	-106.840576	118.619845	1011.422021	-483.856631	197.143340	974.365719	-482.721130	220.035246	1002.007546	-475.369440	247.894191	901.432420	-479.027156	356.449574	780.968596	-455.403854	381.878835	761.618227	-343.821521	350.420809	657.791313	-477.798139	353.030046	572.803102	-458.067802	315.094428	492.843947	-459.604870	379.351972	570.131587	-428.168935	280.462164	348.405466	-459.079600	272.354270	347.638975	-370.738495	198.573888	321.825392	-423.421732	499.954487	318.214897	-413.749614	434.231452	277.876407	-478.341057	-184.981079	930.102795	-287.111718	-17.522557	78.949214	-485.582123	-17.506836	79.193569	-84.845468	
1501	7.5050	490.903680	1344.316176	-152.976425	503.397790	1325.845078	-431.914529	481.849097	1400.166844	-296.501635	437.616357	1244.738748	-294.025939	462.702477	1068.224443	7.977739	686.837569	915.665042	-104.080898	452.221454	1065.274870	-569.213303	685.384267	919.508023	-488.948068	-75.923060	1158.946948	-301.710583	74.161477	1181.895972	-455.266777	71.606946	1184.419718	-133.936456	120.612936	1142.022746	-409.041063	123.021836	1142.019571	-176.935831	-55.392475	1206.369600	-254.812958	-54.357612	1207.520564	-333.615978	32.538015	1118.994821	-114.614143	55.738116	1084.066801	-475.047114	151.097455	1021.214499	-83.826583	229.589688	980.643388	-81.310728	278.859712	911.892564	-70.219646	251.938989	1004.202545	-99.756178	360.597857	796.343961	-80.436242	358.393619	776.551969	-194.832585	263.139440	720.828438	-69.098669	211.533566	648.877125	-93.830379	132.900941	619.599878	-112.615432	236.871326	627.552007	-113.904630	24.710745	516.253720	-136.606152	58.509550	511.224760	-217.583511	-45.060726	526.137256	-186.904643	191.690219	340.125949	-154.067016	117.843866	359.853798	-106.938067	116.693860	1010.234225	-484.206314	194.209167	971.063330	-483.514426	217.881286	998.146672	-476.322989	242.951123	896.811968	-479.766496	349.398798	773.332563	-456.736043	375.825969	753.578879	-344.174994	345.350962	649.173108	-478.702116	348.711448	564.358445	-458.692380	311.649701	484.008649	-460.621919	374.619804	562.160645	-428.405199	278.571543	339.116249	-460.394813	269.739678	338.174292	-372.228050	196.474701	312.822997	-425.486306	497.771829	307.111996	-412.504835	432.415112	267.359425	-477.928071	-185.000087	930.122830	-287.251641	-17.513490	78.976413	-485.579883	-17.490335	79.203214	-84.854499	
1502	7.5100	491.591436	1345.415556	-152.274620	504.460927	1326.437185	-431.463638	483.005397	1400.801783	-295.997250	438.344996	1245.524270	-293.115942	463.474264	1069.250747	8.200507	687.212778	916.183764	-104.323244	453.624091	1066.645119	-570.022520	685.807115	919.395057	-489.179332	-74.975700	1160.600236	-302.650286	75.327270	1182.877068	-456.120979	71.605081	1186.074994	-134.837244	121.572885	1142.666927	-409.858958	123.079063	1143.728818	-177.844498	-54.673318	1208.216310	-255.793516	-52.997821	1208.974367	-335.203450	32.764076	1122.170746	-115.040270	55.431244	1084.349806	-475.416830	151.958440	1025.792088	-84.626465	231.138473	986.647970	-81.797251	281.664975	918.945607	-69.987342	253.060013	1010.389086	-100.573888	364.748414	804.222933	-79.908048	362.931811	784.151893	-194.226740	267.066231	729.456392	-68.837464	215.107937	657.817315	-93.529686	136.286153	629.061369	-112.692467	240.276427	636.020242	-112.887376	27.635098	526.362575	-137.095343	60.879614	521.296505	-218.232074	-42.255644	536.155264	-187.304872	194.900063	350.939232	-154.488722	121.228324	370.958244	-106.629838	114.754766	1008.968979	-484.705837	191.263224	967.731276	-484.339712	215.629319	994.175478	-477.342389	238.036897	892.224946	-480.525326	341.753474	765.455487	-457.819049	367.969744	745.468194	-345.150842	339.276490	640.718842	-479.560703	343.457430	555.952158	-459.632504	307.340690	475.223612	-461.739233	369.179462	553.849894	-428.816229	276.071745	329.840342	-461.611792	266.178302	328.992331	-373.869538	193.693357	303.943822	-427.387868	494.888530	296.147766	-411.537643	429.858829	256.883244	-477.601605	-184.941416	930.197926	-287.714073	-17.510353	78.978647	-485.595882	-17.499704	79.232897	-84.858692	
1503	7.5150	492.212101	1346.427196	-151.552479	505.687318	1327.126283	-430.780293	484.179261	1401.400319	-295.331093	439.184238	1246.245819	-292.188351	464.261593	1070.178075	8.215774	687.939910	916.980540	-104.876611	455.383212	1067.969595	-570.822427	686.307281	919.166762	-489.353966	-74.196859	1162.663479	-303.778008	76.642934	1183.651134	-456.947776	71.582582	1187.681979	-135.934515	122.541211	1143.280732	-410.465979	123.047468	1145.540174	-178.748793	-50.424038	1209.373593	-259.584156	-52.134938	1210.686246	-334.641885	32.979206	1125.619159	-115.427926	55.173480	1084.315699	-475.775361	152.687064	1030.515762	-85.669920	232.527119	992.860483	-82.389624	284.258800	926.234213	-69.843921	254.094150	1016.848228	-101.408502	369.076991	812.313635	-79.434557	367.191588	791.555490	-193.814758	271.327012	738.004823	-68.612300	218.909881	666.760136	-93.437925	140.004946	638.495593	-112.763787	244.767087	644.758511	-112.451470	31.119636	536.295832	-137.425335	63.658100	531.326763	-218.706482	-38.855409	545.636279	-187.550809	198.928631	361.725695	-154.803055	125.055996	381.057198	-107.101856	112.898747	1007.677475	-485.311066	188.300442	964.379858	-485.234381	213.364225	990.211915	-478.370790	232.918766	887.464723	-480.741417	333.569781	757.731038	-458.990104	359.074593	736.969816	-346.604298	331.991126	632.322358	-480.261411	337.281717	547.618490	-460.778320	302.038080	466.524872	-463.061756	362.971407	546.044529	-429.963333	272.819478	320.515238	-462.671985	262.214287	320.033678	-375.162112	190.236581	295.289796	-428.921606	491.264705	285.508261	-410.810316	426.560095	246.579870	-477.259117	-185.062546	930.150681	-287.245700	-17.512642	78.986417	-485.597324	-17.477565	79.224751	-84.862451	
1504	7.5200	492.809853	1347.508114	-150.634399	506.989065	1327.690437	-429.938090	485.383523	1401.981482	-294.531244	440.034626	1246.958610	-291.040059	465.186086	1071.194977	8.265429	688.393411	917.377455	-105.158488	457.300943	1069.350399	-571.399887	686.897806	918.885178	-489.465337	-73.420025	1164.479602	-304.945743	78.158753	1184.448378	-457.884853	71.421766	1189.434385	-137.001948	123.687922	1143.808962	-411.255412	123.086810	1147.481465	-179.494529	-50.303807	1212.041531	-261.069813	-50.226285	1212.684261	-336.355079	32.971676	1129.227995	-115.877621	54.994513	1084.064389	-476.109649	153.199002	1035.417500	-86.852609	233.803278	999.255584	-82.970580	286.603478	933.850607	-69.834799	254.940905	1023.495339	-102.208071	373.525687	820.674416	-79.020344	371.727216	800.487613	-193.068991	275.738107	746.748595	-68.485010	223.005110	675.625015	-93.409764	144.028408	647.696157	-112.768207	248.781003	653.592696	-112.340936	34.882488	545.825721	-137.777087	68.633111	540.787146	-218.875195	-35.238767	554.974878	-187.802823	203.361175	372.244402	-155.160258	129.620258	391.233717	-107.322116	111.102281	1006.250981	-486.042175	185.269863	960.949424	-486.113642	211.061899	986.056544	-479.383652	227.771713	882.861130	-481.993936	325.335048	749.929656	-460.058700	349.710978	728.805897	-348.095142	324.036543	624.066370	-481.513188	330.352479	539.463761	-462.084538	296.009805	457.863742	-464.189993	356.004194	538.440821	-431.329084	268.746860	311.384907	-463.633657	258.092317	311.089540	-376.000538	186.224398	286.914329	-430.150797	487.075560	275.057678	-409.990591	422.497304	236.548125	-476.970611	-184.977413	930.187659	-287.164504	-17.499257	78.992947	-485.617893	-17.480525	79.237788	-84.879119	
